<svg width="900" height="900" viewBox="0 0 900 900" fill="none" xmlns="http://www.w3.org/2000/svg">
<rect width="900" height="900" rx="90" fill="white"/>
<path d="M337.771 646.242L409.89 574.123C403.154 572.34 396.615 569.368 390.672 565.207L309.835 646.242H337.771Z" fill="#FFAC34"/>
<path fill-rule="evenodd" clip-rule="evenodd" d="M441.987 574.123L474.282 650.006L529.164 529.148C502.218 547.177 473.093 562.631 441.987 574.123ZM250 425.724L325.883 458.019C337.375 426.913 352.829 397.788 370.859 370.842L250 425.724ZM432.081 327.848C544.222 215.688 642.296 257.711 642.296 257.711C642.296 257.711 684.299 355.785 572.158 467.926C534.421 505.713 489.113 535.086 439.213 554.112C424.354 559.659 408.107 556.093 397.21 544.998L355.008 502.994C344.111 491.899 340.347 475.653 345.894 460.793C362.735 418.988 388.69 371.239 432.081 327.848ZM502.218 341.717C486.764 357.172 486.764 382.334 502.218 397.788C517.672 413.242 542.835 413.242 558.289 397.788C573.743 382.334 573.545 357.172 558.289 341.717C542.835 326.263 517.672 326.263 502.218 341.717Z" fill="#161A19"/>
<path d="M253.764 590.171L334.799 509.335C330.639 503.391 327.667 497.051 325.883 490.116L253.764 562.235V590.171Z" fill="#FFAC34"/>
<path d="M253.764 646.242H281.701L376.208 551.932L362.141 537.964L348.074 523.996L253.764 618.306V646.242Z" fill="#FFCC4D"/>
<path d="M502.218 397.788C486.764 382.334 486.764 357.172 502.218 341.717C517.672 326.263 542.835 326.263 558.289 341.717C573.545 357.172 573.743 382.334 558.289 397.788C542.835 413.242 517.672 413.242 502.218 397.788Z" fill="#A4D5E9"/>
<path d="M151.567 149.544H135.055V142.056H128.911V185.256H135.631V201H95.3113V185.256H102.031V142.056H95.8873V149.544H79.3753V126.312H151.567V149.544ZM190.954 202.344C179.242 202.344 170.186 199.272 163.786 193.128C157.45 186.984 154.282 177.16 154.282 163.656C154.282 150.152 157.45 140.328 163.786 134.184C170.186 128.04 179.242 124.968 190.954 124.968C202.666 124.968 211.69 128.04 218.026 134.184C224.426 140.328 227.626 150.152 227.626 163.656C227.626 177.16 224.426 186.984 218.026 193.128C211.69 199.272 202.666 202.344 190.954 202.344ZM190.954 185.256C193.13 185.256 194.762 184.68 195.85 183.528C196.938 182.376 197.482 180.584 197.482 178.152V149.16C197.482 146.728 196.938 144.936 195.85 143.784C194.762 142.632 193.13 142.056 190.954 142.056C188.778 142.056 187.146 142.632 186.058 143.784C184.97 144.936 184.426 146.728 184.426 149.16V178.152C184.426 180.648 184.97 182.472 186.058 183.624C187.146 184.712 188.778 185.256 190.954 185.256ZM336.777 142.056H331.977V185.256H336.777V201H300.489V185.256H305.097V151.656L288.777 201H274.569L257.769 152.136V185.256H262.377V201H230.889V185.256H235.689V142.056H230.889V126.312H274.857L284.841 156.264L294.441 126.312H336.777V142.056ZM376.672 202.344C364.96 202.344 355.904 199.272 349.504 193.128C343.168 186.984 340 177.16 340 163.656C340 150.152 343.168 140.328 349.504 134.184C355.904 128.04 364.96 124.968 376.672 124.968C388.384 124.968 397.408 128.04 403.744 134.184C410.144 140.328 413.344 150.152 413.344 163.656C413.344 177.16 410.144 186.984 403.744 193.128C397.408 199.272 388.384 202.344 376.672 202.344ZM376.672 185.256C378.848 185.256 380.48 184.68 381.568 183.528C382.656 182.376 383.2 180.584 383.2 178.152V149.16C383.2 146.728 382.656 144.936 381.568 143.784C380.48 142.632 378.848 142.056 376.672 142.056C374.496 142.056 372.864 142.632 371.776 143.784C370.688 144.936 370.144 146.728 370.144 149.16V178.152C370.144 180.648 370.688 182.472 371.776 183.624C372.864 184.712 374.496 185.256 376.672 185.256ZM416.608 185.256H421.408V142.056H416.608V126.312H460.672C468.928 126.312 475.232 128.008 479.584 131.4C483.936 134.792 486.112 140.296 486.112 147.912C486.112 152.2 485.248 155.912 483.52 159.048C481.792 162.184 479.328 164.36 476.128 165.576L476.224 166.536C482.368 167.496 485.44 171.272 485.44 177.864V185.256H489.952V201H459.52V178.44C459.52 175.944 459.136 174.056 458.368 172.776C457.664 171.496 456.512 170.632 454.912 170.184C453.376 169.736 451.168 169.512 448.288 169.512V185.256H454.624V201H416.608V185.256ZM453.472 157.8C455.328 157.8 456.704 157.32 457.6 156.36C458.56 155.336 459.04 153.768 459.04 151.656V148.2C459.04 146.088 458.56 144.552 457.6 143.592C456.704 142.568 455.328 142.056 453.472 142.056H448.288V157.8H453.472ZM493.389 185.256H498.189V142.056H493.389V126.312H537.453C545.709 126.312 552.013 128.008 556.365 131.4C560.717 134.792 562.893 140.296 562.893 147.912C562.893 152.2 562.029 155.912 560.301 159.048C558.573 162.184 556.109 164.36 552.909 165.576L553.005 166.536C559.149 167.496 562.221 171.272 562.221 177.864V185.256H566.733V201H536.301V178.44C536.301 175.944 535.917 174.056 535.149 172.776C534.445 171.496 533.293 170.632 531.693 170.184C530.157 169.736 527.949 169.512 525.069 169.512V185.256H531.405V201H493.389V185.256ZM530.253 157.8C532.109 157.8 533.485 157.32 534.381 156.36C535.341 155.336 535.821 153.768 535.821 151.656V148.2C535.821 146.088 535.341 144.552 534.381 143.592C533.485 142.568 532.109 142.056 530.253 142.056H525.069V157.8H530.253ZM606.266 202.344C594.554 202.344 585.498 199.272 579.098 193.128C572.762 186.984 569.594 177.16 569.594 163.656C569.594 150.152 572.762 140.328 579.098 134.184C585.498 128.04 594.554 124.968 606.266 124.968C617.978 124.968 627.002 128.04 633.338 134.184C639.738 140.328 642.938 150.152 642.938 163.656C642.938 177.16 639.738 186.984 633.338 193.128C627.002 199.272 617.978 202.344 606.266 202.344ZM606.266 185.256C608.442 185.256 610.074 184.68 611.162 183.528C612.25 182.376 612.794 180.584 612.794 178.152V149.16C612.794 146.728 612.25 144.936 611.162 143.784C610.074 142.632 608.442 142.056 606.266 142.056C604.09 142.056 602.458 142.632 601.37 143.784C600.282 144.936 599.738 146.728 599.738 149.16V178.152C599.738 180.648 600.282 182.472 601.37 183.624C602.458 184.712 604.09 185.256 606.266 185.256ZM726.406 126.312H757.126V142.056H753.286L738.982 201H710.278L701.542 159.528H700.582L691.366 201H662.662L647.398 142.056H643.558V126.312H679.078V142.056H675.43L679.174 166.536H680.134L689.254 126.312H716.902L725.35 166.536H726.31L730.054 142.056H726.406V126.312ZM789.961 202.344C783.817 202.344 777.993 201.832 772.489 200.808C767.049 199.72 762.857 198.504 759.913 197.16V178.152H781.033C781.033 180.136 781.481 181.576 782.377 182.472C783.273 183.368 784.905 183.816 787.273 183.816C789.257 183.816 790.665 183.528 791.497 182.952C792.393 182.312 792.841 181.384 792.841 180.168C792.841 179.144 792.425 178.28 791.593 177.576C790.761 176.808 789.321 176.04 787.273 175.272L779.017 172.392C771.913 169.704 766.793 166.536 763.657 162.888C760.585 159.24 759.049 154.312 759.049 148.104C759.049 140.552 761.513 134.824 766.441 130.92C771.433 126.952 779.721 124.968 791.305 124.968C796.873 124.968 802.089 125.544 806.953 126.696C811.881 127.784 815.849 129.256 818.857 131.112V148.296H799.657C799.657 145.096 797.673 143.496 793.705 143.496C791.785 143.496 790.409 143.752 789.577 144.264C788.809 144.712 788.425 145.544 788.425 146.76C788.425 147.848 788.873 148.712 789.769 149.352C790.729 149.992 792.265 150.664 794.377 151.368L802.729 154.248C809.513 156.552 814.441 159.56 817.513 163.272C820.649 166.92 822.217 171.72 822.217 177.672C822.217 185.8 819.465 191.944 813.961 196.104C808.521 200.264 800.521 202.344 789.961 202.344Z" fill="#161A19"/>
<path d="M364.173 750.056H359.373V793.256H364.173V809H327.885V793.256H332.493V777.416H319.053V793.256H323.661V809H287.373V793.256H292.173V750.056H287.373V734.312H323.661V750.056H319.053V764.648H332.493V750.056H327.885V734.312H364.173V750.056ZM430.974 793.256V809H404.67V801.512C400.062 807.4 394.302 810.344 387.39 810.344C382.078 810.344 378.078 808.68 375.39 805.352C372.766 802.024 371.454 797.448 371.454 791.624V771.368H367.23V755.624H393.534V787.112C393.534 789.224 393.982 790.792 394.878 791.816C395.838 792.776 397.246 793.256 399.102 793.256C400.958 793.256 402.334 792.776 403.23 791.816C404.19 790.792 404.67 789.224 404.67 787.112V771.368H399.486V755.624H426.75V793.256H430.974ZM456.947 810.344C448.883 810.344 441.107 809.064 433.619 806.504V792.296H449.171V793.256C449.171 796.328 451.123 797.864 455.027 797.864C458.483 797.864 460.211 796.68 460.211 794.312C460.211 793.032 459.699 792.072 458.675 791.432C457.715 790.792 455.987 790.248 453.491 789.8L448.691 788.936C438.643 787.144 433.619 781.448 433.619 771.848C433.619 766.28 435.731 761.96 439.955 758.888C444.179 755.816 449.875 754.28 457.043 754.28C465.043 754.28 471.795 755.624 477.299 758.312V771.656H462.707V770.696C462.707 769.416 462.259 768.456 461.363 767.816C460.531 767.112 459.283 766.76 457.619 766.76C454.419 766.76 452.819 767.784 452.819 769.832C452.819 770.92 453.267 771.752 454.163 772.328C455.059 772.904 456.691 773.448 459.059 773.96L464.531 775.016C470.227 776.104 474.291 778.12 476.723 781.064C479.155 784.008 480.371 787.784 480.371 792.392C480.371 798.216 478.323 802.664 474.227 805.736C470.195 808.808 464.435 810.344 456.947 810.344ZM507.112 810.344C500.328 810.344 495.208 808.712 491.752 805.448C488.36 802.12 486.664 796.552 486.664 788.744V771.368H482.44V755.624C484.872 755.624 486.696 755.016 487.912 753.8C489.128 752.52 489.736 750.792 489.736 748.616V744.296H510.088V755.624H523.048V771.368H510.088V787.112C510.088 789.224 510.536 790.792 511.432 791.816C512.392 792.776 513.8 793.256 515.656 793.256C518.088 793.256 520.744 792.968 523.624 792.392V807.464C521.832 808.168 519.4 808.808 516.328 809.384C513.32 810.024 510.248 810.344 507.112 810.344ZM526.712 809.096V793.256H530.936V750.056H526.712V734.312H553.016V793.256H557.24V809.096H526.712ZM588.883 810.344C579.795 810.344 572.691 807.976 567.571 803.24C562.451 798.44 559.891 791.464 559.891 782.312C559.891 773.16 562.451 766.216 567.571 761.48C572.691 756.68 579.795 754.28 588.883 754.28C597.907 754.28 604.403 756.648 608.371 761.384C612.403 766.056 614.419 771.88 614.419 778.856V785.768H583.315V786.344C583.315 788.712 584.019 790.472 585.427 791.624C586.835 792.712 589.171 793.256 592.435 793.256C596.339 793.256 600.051 792.968 603.571 792.392C607.091 791.816 610.163 791.08 612.787 790.184V805.544C610.547 806.76 607.251 807.88 602.899 808.904C598.611 809.864 593.939 810.344 588.883 810.344ZM594.451 775.208V774.056C594.451 771.88 593.971 770.312 593.011 769.352C592.115 768.392 590.739 767.912 588.883 767.912C587.027 767.912 585.619 768.424 584.659 769.448C583.763 770.408 583.315 771.944 583.315 774.056V775.208H594.451Z" fill="#161A19"/>
</svg>
