<svg width="1024" height="1024" viewBox="0 0 1024 1024" fill="none" xmlns="http://www.w3.org/2000/svg">
<rect width="1024" height="1024" fill="white"/>
<path d="M399.771 708.242L471.89 636.123C465.154 634.34 458.615 631.368 452.672 627.207L371.835 708.242H399.771Z" fill="#FFAC34"/>
<path fill-rule="evenodd" clip-rule="evenodd" d="M503.987 636.123L536.282 712.006L591.164 591.148C564.218 609.177 535.093 624.631 503.987 636.123ZM312 487.724L387.883 520.019C399.375 488.913 414.829 459.788 432.859 432.842L312 487.724ZM494.081 389.848C606.222 277.688 704.296 319.711 704.296 319.711C704.296 319.711 746.299 417.785 634.158 529.926C596.421 567.713 551.113 597.086 501.213 616.112C486.354 621.659 470.107 618.093 459.21 606.998L417.008 564.994C406.111 553.899 402.347 537.653 407.894 522.793C424.735 480.988 450.69 433.239 494.081 389.848ZM564.218 403.717C548.764 419.172 548.764 444.334 564.218 459.788C579.672 475.242 604.835 475.242 620.289 459.788C635.743 444.334 635.545 419.172 620.289 403.717C604.835 388.263 579.672 388.263 564.218 403.717Z" fill="#161A19"/>
<path d="M315.764 652.171L396.799 571.335C392.639 565.391 389.667 559.051 387.883 552.116L315.764 624.235V652.171Z" fill="#FFAC34"/>
<path d="M315.764 708.242H343.701L438.208 613.932L424.141 599.964L410.074 585.996L315.764 680.306V708.242Z" fill="#FFCC4D"/>
<path d="M564.218 459.788C548.764 444.334 548.764 419.172 564.218 403.717C579.672 388.263 604.835 388.263 620.289 403.717C635.545 419.172 635.743 444.334 620.289 459.788C604.835 475.242 579.672 475.242 564.218 459.788Z" fill="#A4D5E9"/>
<path d="M620.645 403.366L620.642 403.364C604.993 387.715 579.514 387.715 563.865 403.364C548.215 419.013 548.215 444.492 563.865 460.142C579.514 475.791 604.993 475.791 620.642 460.142C636.295 444.489 636.09 419.012 620.645 403.366ZM564.572 459.434C549.313 444.176 549.313 419.33 564.572 404.071C579.83 388.813 604.674 388.812 619.933 404.069C635 419.331 635.191 444.178 619.935 459.434C604.676 474.693 579.831 474.693 564.572 459.434ZM452.431 599.512L424.495 571.575L424.412 571.658L417.365 564.644C417.365 564.644 417.364 564.643 417.363 564.642C406.601 553.683 402.887 537.644 408.361 522.974C425.184 481.213 451.106 433.53 494.434 390.202L494.081 389.848L494.434 390.202C550.424 334.202 602.87 316.721 641.286 313.217C660.5 311.465 676.215 313.208 687.121 315.387C692.575 316.477 696.825 317.675 699.71 318.6C701.152 319.063 702.252 319.457 702.991 319.734C703.36 319.873 703.638 319.983 703.824 320.057C703.856 320.071 703.886 320.083 703.913 320.093C703.924 320.12 703.936 320.15 703.949 320.182C704.023 320.368 704.133 320.646 704.272 321.015C704.549 321.754 704.943 322.854 705.405 324.296C706.329 327.181 707.527 331.432 708.616 336.885C710.794 347.791 712.535 363.506 710.782 382.72C707.276 421.136 689.794 473.582 633.804 529.572L633.804 529.572C596.117 567.31 550.869 596.643 501.036 615.644C486.359 621.123 470.322 617.599 459.567 606.647L459.563 606.643L452.414 599.528L452.431 599.512ZM589.985 592.534L536.297 710.764L504.652 636.41C535.056 625.129 563.561 610.072 589.985 592.534ZM431.472 434.021C413.934 460.445 398.877 488.951 387.597 519.354L313.242 487.709L431.472 434.021ZM470.927 636.379L399.564 707.742H373.04L452.73 627.856C458.384 631.756 464.56 634.597 470.927 636.379ZM437.499 613.933L343.494 707.742H316.264V680.513L410.075 586.702L423.789 600.319L437.499 613.933ZM387.623 553.084C389.405 559.618 392.249 565.627 396.15 571.276L316.264 650.966V624.442L387.623 553.084Z" stroke="black"/>
<rect x="74" y="74" width="876" height="876" rx="78" stroke="black" stroke-width="24"/>
<path d="M213.567 211.544H197.055V204.056H190.911V247.256H197.631V263H157.311V247.256H164.031V204.056H157.887V211.544H141.375V188.312H213.567V211.544ZM252.954 264.344C241.242 264.344 232.186 261.272 225.786 255.128C219.45 248.984 216.282 239.16 216.282 225.656C216.282 212.152 219.45 202.328 225.786 196.184C232.186 190.04 241.242 186.968 252.954 186.968C264.666 186.968 273.69 190.04 280.026 196.184C286.426 202.328 289.626 212.152 289.626 225.656C289.626 239.16 286.426 248.984 280.026 255.128C273.69 261.272 264.666 264.344 252.954 264.344ZM252.954 247.256C255.13 247.256 256.762 246.68 257.85 245.528C258.938 244.376 259.482 242.584 259.482 240.152V211.16C259.482 208.728 258.938 206.936 257.85 205.784C256.762 204.632 255.13 204.056 252.954 204.056C250.778 204.056 249.146 204.632 248.058 205.784C246.97 206.936 246.426 208.728 246.426 211.16V240.152C246.426 242.648 246.97 244.472 248.058 245.624C249.146 246.712 250.778 247.256 252.954 247.256ZM398.777 204.056H393.977V247.256H398.777V263H362.489V247.256H367.097V213.656L350.777 263H336.569L319.769 214.136V247.256H324.377V263H292.889V247.256H297.689V204.056H292.889V188.312H336.857L346.841 218.264L356.441 188.312H398.777V204.056ZM438.672 264.344C426.96 264.344 417.904 261.272 411.504 255.128C405.168 248.984 402 239.16 402 225.656C402 212.152 405.168 202.328 411.504 196.184C417.904 190.04 426.96 186.968 438.672 186.968C450.384 186.968 459.408 190.04 465.744 196.184C472.144 202.328 475.344 212.152 475.344 225.656C475.344 239.16 472.144 248.984 465.744 255.128C459.408 261.272 450.384 264.344 438.672 264.344ZM438.672 247.256C440.848 247.256 442.48 246.68 443.568 245.528C444.656 244.376 445.2 242.584 445.2 240.152V211.16C445.2 208.728 444.656 206.936 443.568 205.784C442.48 204.632 440.848 204.056 438.672 204.056C436.496 204.056 434.864 204.632 433.776 205.784C432.688 206.936 432.144 208.728 432.144 211.16V240.152C432.144 242.648 432.688 244.472 433.776 245.624C434.864 246.712 436.496 247.256 438.672 247.256ZM478.608 247.256H483.408V204.056H478.608V188.312H522.672C530.928 188.312 537.232 190.008 541.584 193.4C545.936 196.792 548.112 202.296 548.112 209.912C548.112 214.2 547.248 217.912 545.52 221.048C543.792 224.184 541.328 226.36 538.128 227.576L538.224 228.536C544.368 229.496 547.44 233.272 547.44 239.864V247.256H551.952V263H521.52V240.44C521.52 237.944 521.136 236.056 520.368 234.776C519.664 233.496 518.512 232.632 516.912 232.184C515.376 231.736 513.168 231.512 510.288 231.512V247.256H516.624V263H478.608V247.256ZM515.472 219.8C517.328 219.8 518.704 219.32 519.6 218.36C520.56 217.336 521.04 215.768 521.04 213.656V210.2C521.04 208.088 520.56 206.552 519.6 205.592C518.704 204.568 517.328 204.056 515.472 204.056H510.288V219.8H515.472ZM555.389 247.256H560.189V204.056H555.389V188.312H599.453C607.709 188.312 614.013 190.008 618.365 193.4C622.717 196.792 624.893 202.296 624.893 209.912C624.893 214.2 624.029 217.912 622.301 221.048C620.573 224.184 618.109 226.36 614.909 227.576L615.005 228.536C621.149 229.496 624.221 233.272 624.221 239.864V247.256H628.733V263H598.301V240.44C598.301 237.944 597.917 236.056 597.149 234.776C596.445 233.496 595.293 232.632 593.693 232.184C592.157 231.736 589.949 231.512 587.069 231.512V247.256H593.405V263H555.389V247.256ZM592.253 219.8C594.109 219.8 595.485 219.32 596.381 218.36C597.341 217.336 597.821 215.768 597.821 213.656V210.2C597.821 208.088 597.341 206.552 596.381 205.592C595.485 204.568 594.109 204.056 592.253 204.056H587.069V219.8H592.253ZM668.266 264.344C656.554 264.344 647.498 261.272 641.098 255.128C634.762 248.984 631.594 239.16 631.594 225.656C631.594 212.152 634.762 202.328 641.098 196.184C647.498 190.04 656.554 186.968 668.266 186.968C679.978 186.968 689.002 190.04 695.338 196.184C701.738 202.328 704.938 212.152 704.938 225.656C704.938 239.16 701.738 248.984 695.338 255.128C689.002 261.272 679.978 264.344 668.266 264.344ZM668.266 247.256C670.442 247.256 672.074 246.68 673.162 245.528C674.25 244.376 674.794 242.584 674.794 240.152V211.16C674.794 208.728 674.25 206.936 673.162 205.784C672.074 204.632 670.442 204.056 668.266 204.056C666.09 204.056 664.458 204.632 663.37 205.784C662.282 206.936 661.738 208.728 661.738 211.16V240.152C661.738 242.648 662.282 244.472 663.37 245.624C664.458 246.712 666.09 247.256 668.266 247.256ZM788.406 188.312H819.126V204.056H815.286L800.982 263H772.278L763.542 221.528H762.582L753.366 263H724.662L709.398 204.056H705.558V188.312H741.078V204.056H737.43L741.174 228.536H742.134L751.254 188.312H778.902L787.35 228.536H788.31L792.054 204.056H788.406V188.312ZM851.961 264.344C845.817 264.344 839.993 263.832 834.489 262.808C829.049 261.72 824.857 260.504 821.913 259.16V240.152H843.033C843.033 242.136 843.481 243.576 844.377 244.472C845.273 245.368 846.905 245.816 849.273 245.816C851.257 245.816 852.665 245.528 853.497 244.952C854.393 244.312 854.841 243.384 854.841 242.168C854.841 241.144 854.425 240.28 853.593 239.576C852.761 238.808 851.321 238.04 849.273 237.272L841.017 234.392C833.913 231.704 828.793 228.536 825.657 224.888C822.585 221.24 821.049 216.312 821.049 210.104C821.049 202.552 823.513 196.824 828.441 192.92C833.433 188.952 841.721 186.968 853.305 186.968C858.873 186.968 864.089 187.544 868.953 188.696C873.881 189.784 877.849 191.256 880.857 193.112V210.296H861.657C861.657 207.096 859.673 205.496 855.705 205.496C853.785 205.496 852.409 205.752 851.577 206.264C850.809 206.712 850.425 207.544 850.425 208.76C850.425 209.848 850.873 210.712 851.769 211.352C852.729 211.992 854.265 212.664 856.377 213.368L864.729 216.248C871.513 218.552 876.441 221.56 879.513 225.272C882.649 228.92 884.217 233.72 884.217 239.672C884.217 247.8 881.465 253.944 875.961 258.104C870.521 262.264 862.521 264.344 851.961 264.344Z" fill="#161A19"/>
<path d="M426.173 812.056H421.373V855.256H426.173V871H389.885V855.256H394.493V839.416H381.053V855.256H385.661V871H349.373V855.256H354.173V812.056H349.373V796.312H385.661V812.056H381.053V826.648H394.493V812.056H389.885V796.312H426.173V812.056ZM492.974 855.256V871H466.67V863.512C462.062 869.4 456.302 872.344 449.39 872.344C444.078 872.344 440.078 870.68 437.39 867.352C434.766 864.024 433.454 859.448 433.454 853.624V833.368H429.23V817.624H455.534V849.112C455.534 851.224 455.982 852.792 456.878 853.816C457.838 854.776 459.246 855.256 461.102 855.256C462.958 855.256 464.334 854.776 465.23 853.816C466.19 852.792 466.67 851.224 466.67 849.112V833.368H461.486V817.624H488.75V855.256H492.974ZM518.947 872.344C510.883 872.344 503.107 871.064 495.619 868.504V854.296H511.171V855.256C511.171 858.328 513.123 859.864 517.027 859.864C520.483 859.864 522.211 858.68 522.211 856.312C522.211 855.032 521.699 854.072 520.675 853.432C519.715 852.792 517.987 852.248 515.491 851.8L510.691 850.936C500.643 849.144 495.619 843.448 495.619 833.848C495.619 828.28 497.731 823.96 501.955 820.888C506.179 817.816 511.875 816.28 519.043 816.28C527.043 816.28 533.795 817.624 539.299 820.312V833.656H524.707V832.696C524.707 831.416 524.259 830.456 523.363 829.816C522.531 829.112 521.283 828.76 519.619 828.76C516.419 828.76 514.819 829.784 514.819 831.832C514.819 832.92 515.267 833.752 516.163 834.328C517.059 834.904 518.691 835.448 521.059 835.96L526.531 837.016C532.227 838.104 536.291 840.12 538.723 843.064C541.155 846.008 542.371 849.784 542.371 854.392C542.371 860.216 540.323 864.664 536.227 867.736C532.195 870.808 526.435 872.344 518.947 872.344ZM569.112 872.344C562.328 872.344 557.208 870.712 553.752 867.448C550.36 864.12 548.664 858.552 548.664 850.744V833.368H544.44V817.624C546.872 817.624 548.696 817.016 549.912 815.8C551.128 814.52 551.736 812.792 551.736 810.616V806.296H572.088V817.624H585.048V833.368H572.088V849.112C572.088 851.224 572.536 852.792 573.432 853.816C574.392 854.776 575.8 855.256 577.656 855.256C580.088 855.256 582.744 854.968 585.624 854.392V869.464C583.832 870.168 581.4 870.808 578.328 871.384C575.32 872.024 572.248 872.344 569.112 872.344ZM588.712 871.096V855.256H592.936V812.056H588.712V796.312H615.016V855.256H619.24V871.096H588.712ZM650.883 872.344C641.795 872.344 634.691 869.976 629.571 865.24C624.451 860.44 621.891 853.464 621.891 844.312C621.891 835.16 624.451 828.216 629.571 823.48C634.691 818.68 641.795 816.28 650.883 816.28C659.907 816.28 666.403 818.648 670.371 823.384C674.403 828.056 676.419 833.88 676.419 840.856V847.768H645.315V848.344C645.315 850.712 646.019 852.472 647.427 853.624C648.835 854.712 651.171 855.256 654.435 855.256C658.339 855.256 662.051 854.968 665.571 854.392C669.091 853.816 672.163 853.08 674.787 852.184V867.544C672.547 868.76 669.251 869.88 664.899 870.904C660.611 871.864 655.939 872.344 650.883 872.344ZM656.451 837.208V836.056C656.451 833.88 655.971 832.312 655.011 831.352C654.115 830.392 652.739 829.912 650.883 829.912C649.027 829.912 647.619 830.424 646.659 831.448C645.763 832.408 645.315 833.944 645.315 836.056V837.208H656.451Z" fill="#161A19"/>
</svg>
