<svg width="400" height="400" viewBox="0 0 400 400" fill="none" xmlns="http://www.w3.org/2000/svg">
<path d="M87.7712 396.242L159.89 324.123C153.154 322.34 146.615 319.368 140.672 315.207L59.835 396.242H87.7712Z" fill="#FFAC34"/>
<path fill-rule="evenodd" clip-rule="evenodd" d="M191.987 324.123L224.282 400.006L279.164 279.148C252.218 297.177 223.093 312.631 191.987 324.123ZM0 175.724L75.8834 208.019C87.3749 176.913 102.829 147.788 120.859 120.842L0 175.724ZM182.081 77.8484C294.222 -34.3124 392.296 7.71075 392.296 7.71075C392.296 7.71075 434.299 105.785 322.158 217.926C284.421 255.713 239.113 285.086 189.213 304.112C174.354 309.659 158.107 306.093 147.21 294.998L105.008 252.994C94.1113 241.899 90.3468 225.653 95.8944 210.793C112.735 168.988 138.69 121.239 182.081 77.8484ZM252.218 91.7175C236.764 107.172 236.764 132.334 252.218 147.788C267.672 163.242 292.835 163.242 308.289 147.788C323.743 132.334 323.545 107.172 308.289 91.7175C292.835 76.2634 267.672 76.2634 252.218 91.7175Z" fill="url(#paint0_linear_14_129)"/>
<path d="M3.76445 340.171L84.7992 259.335C80.6385 253.391 77.6666 247.051 75.8834 240.116L3.76445 312.235V340.171Z" fill="#FFAC34"/>
<path d="M3.76445 396.242H31.7006L126.208 301.932L112.141 287.964L98.0739 273.996L3.76445 368.306V396.242Z" fill="#FFCC4D"/>
<path d="M252.218 147.788C236.764 132.334 236.764 107.172 252.218 91.7175C267.672 76.2634 292.835 76.2634 308.289 91.7175C323.545 107.172 323.743 132.334 308.289 147.788C292.835 163.242 267.672 163.242 252.218 147.788Z" fill="#A4D5E9"/>
<path d="M308.645 91.3662L308.642 91.3639C292.993 75.7146 267.514 75.7146 251.865 91.3639C236.215 107.013 236.215 132.492 251.865 148.142C267.514 163.791 292.993 163.791 308.642 148.142C324.295 132.489 324.09 107.012 308.645 91.3662ZM252.572 147.434C237.313 132.176 237.313 107.33 252.572 92.071C267.83 76.813 292.674 76.8122 307.933 92.0687C323 107.331 323.191 132.178 307.935 147.434C292.676 162.693 267.831 162.693 252.572 147.434ZM140.431 287.512L112.495 259.575L112.412 259.658L105.365 252.644C105.365 252.644 105.364 252.643 105.363 252.642C94.601 241.683 90.8865 225.644 96.3607 210.974C113.184 169.213 139.106 121.53 182.434 78.202L182.081 77.8484L182.434 78.2019C238.424 22.202 290.87 4.72062 329.286 1.2172C348.5 -0.534971 364.215 1.2083 375.121 3.38745C380.575 4.47702 384.825 5.67549 387.71 6.60026C389.152 7.06263 390.252 7.45656 390.991 7.7342C391.36 7.87301 391.638 7.98276 391.824 8.05744C391.856 8.07051 391.886 8.08251 391.913 8.0934C391.924 8.12013 391.936 8.14973 391.949 8.18217C392.023 8.36767 392.133 8.64629 392.272 9.01545C392.549 9.75379 392.943 10.8543 393.405 12.2965C394.329 15.1809 395.527 19.4316 396.616 24.8849C398.794 35.7914 400.535 51.5064 398.782 70.7199C395.276 109.136 377.794 161.582 321.804 217.572L321.804 217.572C284.117 255.31 238.869 284.643 189.036 303.644C174.359 309.123 158.322 305.599 147.567 294.647L147.563 294.643L140.414 287.528L140.431 287.512ZM277.985 280.534L224.297 398.764L192.652 324.41C223.056 313.129 251.561 298.072 277.985 280.534ZM119.472 122.021C101.934 148.445 86.8767 176.951 75.5966 207.354L1.24196 175.709L119.472 122.021ZM158.927 324.379L87.5641 395.742H61.04L140.73 315.856C146.384 319.756 152.56 322.597 158.927 324.379ZM125.499 301.933L31.4939 395.742H4.26445V368.513L98.0751 274.702L111.789 288.319L125.499 301.933ZM75.6226 241.084C77.4054 247.618 80.2488 253.627 84.1497 259.276L4.26445 338.966V312.442L75.6226 241.084Z" stroke="black"/>
<defs>
<linearGradient id="paint0_linear_14_129" x1="200" y1="8.0912e-06" x2="471.5" y2="257.5" gradientUnits="userSpaceOnUse">
<stop stop-color="#BC72EE"/>
<stop offset="1" stop-color="#11CFB9"/>
</linearGradient>
</defs>
</svg>
